<?xml version="1.0" encoding="utf-8"?>
<!-- Generator: Adobe Illustrator 19.2.1, SVG Export Plug-In . SVG Version: 6.00 Build 0)  -->
<svg version="1.1" id="Layer_1" xmlns="http://www.w3.org/2000/svg" xmlns:xlink="http://www.w3.org/1999/xlink" x="0px" y="0px"
	 viewBox="0 0 256 256" style="enable-background:new 0 0 256 256;" xml:space="preserve">
<style type="text/css">
	.st0{fill:#FFFFFF;}
</style>
<path class="st0" d="M200.3,0H55.7C24.9,0,0,25.1,0,56.1v143.8c0,31,24.9,56.1,55.7,56.1h144.6c30.8,0,55.7-25.1,55.7-56.1V56.1
	C256,25.1,231.1,0,200.3,0z M199.4,139.9h-25.8v92.2h-38.3v-92.2H117v-32.6h18.2V86.3c0-15.1,7.2-38.7,38.7-38.7l28.4,0.1v31.6
	h-20.6c-3.4,0-8.1,1.7-8.1,8.9v19.2h29.2L199.4,139.9z"/>
</svg>
