<?xml version="1.0" encoding="utf-8"?>
<!-- Generator: Adobe Illustrator 19.2.1, SVG Export Plug-In . SVG Version: 6.00 Build 0)  -->
<svg version="1.1" id="Layer_1" xmlns="http://www.w3.org/2000/svg" xmlns:xlink="http://www.w3.org/1999/xlink" x="0px" y="0px"
	 viewBox="0 0 256 256" style="enable-background:new 0 0 256 256;" xml:space="preserve">
<path d="M200.3,0H55.7C24.9,0,0,25.1,0,56.1v143.8c0,31,24.9,56.1,55.7,56.1h144.6c30.8,0,55.7-25.1,55.7-56.1V56.1
	C256,25.1,231.1,0,200.3,0z M82.9,163.5c-19.9,0-36-15.9-36-35.5s16.1-35.5,36-35.5s36,15.9,36,35.5S102.7,163.5,82.9,163.5z
	 M173.1,163.5c-19.9,0-36-15.9-36-35.5s16.1-35.5,36-35.5c19.9,0,36,15.9,36,35.5S193,163.5,173.1,163.5z"/>
</svg>
