<?xml version="1.0" encoding="utf-8"?>
<!-- Generator: Adobe Illustrator 19.2.1, SVG Export Plug-In . SVG Version: 6.00 Build 0)  -->
<svg version="1.1" id="Layer_1" xmlns="http://www.w3.org/2000/svg" xmlns:xlink="http://www.w3.org/1999/xlink" x="0px" y="0px"
	 viewBox="0 0 256 256" style="enable-background:new 0 0 256 256;" xml:space="preserve">
<style type="text/css">
	.st0{fill:#FFFFFF;}
</style>
<g>
	<path class="st0" d="M200.3,0H55.7C24.9,0,0,25.1,0,56.1v143.8c0,31,24.9,56.1,55.7,56.1h144.6c30.8,0,55.7-25.1,55.7-56.1V56.1
		C256,25.1,231.1,0,200.3,0z M213.9,169c0,26.3-21.3,47.7-47.6,47.7H89.6c-26.3,0-47.6-21.3-47.6-47.7V87
		c0-26.3,21.3-47.7,47.6-47.7h76.7c26.3,0,47.6,21.3,47.6,47.7V169z"/>
	<ellipse class="st0" cx="128" cy="128" rx="21.6" ry="21.7"/>
	<path class="st0" d="M164.7,62.9H91.3C75.7,62.9,63,75.6,63,91.4v73.2c0,15.8,12.7,28.5,28.3,28.5h73.4c15.6,0,28.3-12.8,28.3-28.5
		V91.4C193,75.6,180.3,62.9,164.7,62.9z M128,169.2c-22.7,0-41.1-18.5-41.1-41.2s18.4-41.2,41.1-41.2c22.7,0,41.1,18.5,41.1,41.2
		S150.7,169.2,128,169.2z M171.2,95.4c-5.4,0-9.8-4.4-9.8-9.8c0-5.4,4.4-9.8,9.8-9.8s9.8,4.4,9.8,9.8C181,91,176.6,95.4,171.2,95.4z
		"/>
</g>
</svg>
