<?xml version="1.0" encoding="utf-8"?>
<!-- Generator: Adobe Illustrator 19.2.1, SVG Export Plug-In . SVG Version: 6.00 Build 0)  -->
<svg version="1.1" id="Layer_1" xmlns="http://www.w3.org/2000/svg" xmlns:xlink="http://www.w3.org/1999/xlink" x="0px" y="0px"
	 viewBox="0 0 256 256" style="enable-background:new 0 0 256 256;" xml:space="preserve">
<g>
	<path d="M156.7,117.2v-0.3c-0.1,0.1-0.2,0.2-0.2,0.3H156.7z"/>
	<path d="M200.3,0H55.7C24.9,0,0,25.1,0,56.1v143.8c0,31,24.9,56.1,55.7,56.1h144.6c30.8,0,55.7-25.1,55.7-56.1V56.1
		C256,25.1,231.1,0,200.3,0z M93.3,197.9H61.9v-94.3h31.4V197.9z M77.6,90.7h-0.2C66.9,90.7,60,83.4,60,74.4c0-9.3,7-16.3,17.8-16.3
		s17.3,7,17.5,16.3C95.3,83.4,88.5,90.7,77.6,90.7z M206.4,197.9H175v-50.5c0-12.7-4.5-21.3-15.9-21.3c-8.7,0-13.8,5.8-16.1,11.5
		c-0.8,2-1,4.8-1,7.6v52.7h-31.4c0,0,0.4-85.5,0-94.3H142v13.4c4.2-6.4,11.6-15.6,28.3-15.6c20.6,0,36.1,13.5,36.1,42.5V197.9z"/>
</g>
</svg>
