<?xml version="1.0" encoding="utf-8"?>
<!-- Generator: Adobe Illustrator 19.2.1, SVG Export Plug-In . SVG Version: 6.00 Build 0)  -->
<svg version="1.1" id="Layer_1" xmlns="http://www.w3.org/2000/svg" xmlns:xlink="http://www.w3.org/1999/xlink" x="0px" y="0px"
	 viewBox="0 0 256 256" style="enable-background:new 0 0 256 256;" xml:space="preserve">
<style type="text/css">
	.st0{fill:#FFFFFF;}
</style>
<path class="st0" d="M200.3,0H55.7C24.9,0,0,25.1,0,56.1v143.8c0,31,24.9,56.1,55.7,56.1h144.6c30.8,0,55.7-25.1,55.7-56.1V56.1
	C256,25.1,231.1,0,200.3,0z M220.3,179.1C220.3,179.1,220.3,179.1,220.3,179.1c-1.6,2.2-3.9,3-5.4,3.6c0,0-0.1,0-0.1,0.1
	c-4.2,1.5-8.5,3.2-13.4,3.8c-0.1,0-0.2,0-0.3,0c-1.4,0-2.7,0.3-3.5,1.1c-1.7,1.9-2.2,4.9-3.2,8.3c0,0.2-0.1,0.3-0.2,0.5
	c0.3-0.5,0.1-0.2,0,0.4c-0.1,0.3-0.2,0.7-0.6,1.2c-0.4,0.5-1.2,1-1.9,1.1c-0.2,0-0.4,0-0.6,0c-5.6-0.7-11.2-1-16.8-0.9
	c0,0-0.1,0-0.1,0c-3.1,0.2-5.8,0.2-8,0.9c0,0,0,0,0,0c-6.8,3-13,7.7-19.9,11.7c0,0-0.1,0-0.1,0.1c-3.1,2-6.6,3.2-10.3,3.5
	c0,0,0,0-0.1,0c-4.3,0.3-8.6,0.6-13,0.3c0,0,0,0-0.1,0v0c-5.9-0.2-11-2.9-15.4-5.7v0c0,0,0,0,0,0c-6.6-4-12.5-8.7-19.3-10.4
	c0,0,0,0,0,0c-6.4-1.6-13.5-0.5-20.5,0.7c-0.1,0-0.2,0-0.2,0c-0.2,0-1.2,0.7-3.1,0.3c-0.8-0.2-1.5-0.8-1.7-1.6
	c-0.9-2.9-1.2-5.6-2-7.9c-0.5-1.3-0.8-2-0.9-2.2c-2.3-1-5.1-1.3-8.1-2c0,0,0,0-0.1,0c-4.2-1.1-8.8-2.1-13-4.5c0,0-0.1,0-0.1-0.1
	c-0.7-0.4-1.4-0.8-2.1-1.7c-0.7-0.9-1.3-2.5-0.8-3.9c0.1-0.2,0.1-0.4,0.3-0.5c1.5-2.3,4-2.6,5-2.9c0.1,0,0.1-0.1,0.2-0.1
	c5-1.3,9.8-3.5,14.1-6.4c8.1-5.6,14.7-13.2,19.2-21.9v0c1.6-3.3,2.9-6.7,2.2-9.7c-0.5-2.3-2.9-4.2-5.6-5.4c0,0,0,0,0,0
	c-3.9-1.5-8.5-2.7-12.6-5.5c0,0-0.1-0.1-0.1-0.1c-0.5-0.4-1.3-0.8-2.1-1.6c-0.8-0.7-1.8-1.8-2.1-3.3c0-0.2,0-0.3,0-0.5
	c0.1-2.6,1.9-4.1,3.3-4.9c0,0,0.1,0,0.1-0.1c0,0,0.1,0,0.1,0c1.7-1.2,3.8-1.8,6-1.4c0,0,0.1,0,0.1,0c2.3,0.6,4.3,1.4,6.1,1.7
	c0,0,0,0,0,0c2.7,0.5,5.5,0.7,8,0.2c0-0.1,0-0.2,0.1-0.4c0.5-5.2-0.1-10.7-0.4-16.3c0,0,0,0,0,0c-0.4-8-0.7-16.7,2.5-24.8
	c0,0,0,0,0-0.1c3.4-7.9,8.8-15,15.6-20.3c9.1-7.1,20.8-10.1,32-10.2c2.8,0,5.6,0.1,8.4,0.3c0,0,0,0,0,0c8.3,0.8,16.5,3.5,23.4,8.3
	c9.5,6.7,17,16.7,19.1,28.4c0,0,0,0.1,0,0.1c1,6.9,0.7,13.8,0.5,20.4c0,0,0,0,0,0c-0.1,4.4-0.4,8.6-0.3,12.7h0
	c0.1,0.7,0.1,1.2,0.1,1.5c1.9,0.7,4.3,0.6,6.8,0.1c0,0,0.1,0,0.1,0c1.8-0.2,3.7-1.1,6-1.8c0,0,0,0,0,0c0,0,0,0,0,0
	c2.2-0.7,4.6-0.6,6.8,0.6h0c1.3,0.8,3,1.8,4,3.8c0,0,0,0,0,0c0.6,1.3,0.4,2.8-0.1,3.7c-0.5,1-1.1,1.6-1.6,2.1c0,0,0,0,0,0
	c-3.4,3-7.5,4.5-11.3,5.8c0,0,0,0,0,0c-3.4,1.3-6.6,2.8-8.3,5.3c0,0,0,0,0,0c-1.1,1.5-1.1,3.9-0.3,6.2c0,0,0,0,0,0.1
	c1.9,5.2,4.9,10,8.3,14.5c6.2,8,14.6,14.6,24.2,17.7c0,0,0.1,0,0.1,0c1.4,0.5,3.7,0.7,5.9,2.1v0c0,0,0,0,0,0c0.1,0,0.1,0.1,0.2,0.1
	l0,0C221,174.7,221.6,177.3,220.3,179.1L220.3,179.1z"/>
</svg>
