<?xml version="1.0" encoding="utf-8"?>
<!-- Generator: Adobe Illustrator 19.2.1, SVG Export Plug-In . SVG Version: 6.00 Build 0)  -->
<svg version="1.1" id="Layer_1" xmlns="http://www.w3.org/2000/svg" xmlns:xlink="http://www.w3.org/1999/xlink" x="0px" y="0px"
	 viewBox="0 0 256 256" style="enable-background:new 0 0 256 256;" xml:space="preserve">
<path d="M200.3,0H55.7C24.9,0,0,25.1,0,56.1v143.8c0,31,24.9,56.1,55.7,56.1h144.6c30.8,0,55.7-25.1,55.7-56.1V56.1
	C256,25.1,231.1,0,200.3,0z M203.8,89.7c0.1,1.6,0.1,3.3,0.1,5c0,50.9-39.3,109.6-111.3,109.6c-22.1,0-42.6-6.4-60-17.3
	c3.1,0.4,6.2,0.5,9.3,0.5c18.3,0,35.2-6.2,48.6-16.5C73.5,170.7,59,159.6,54,144.3c2.4,0.5,4.8,0.7,7.4,0.7c3.6,0,7-0.5,10.3-1.3
	c-17.9-3.5-31.4-19.1-31.4-37.8c0-0.2,0-0.3,0-0.5c5.3,2.9,11.3,4.6,17.7,4.8c-10.5-6.9-17.4-18.7-17.4-32c0-7.1,1.9-13.7,5.3-19.4
	C65.2,82.1,94.1,97.4,126.6,99c-0.7-2.8-1-5.8-1-8.8c0-21.3,17.5-38.5,39.1-38.5c11.3,0,21.4,4.7,28.5,12.2
	c8.9-1.7,17.3-4.9,24.8-9.4c-2.9,9-9.1,16.5-17.2,21.3c7.9-0.9,15.5-3,22.5-6.1C218.1,77.5,211.5,84.3,203.8,89.7z"/>
</svg>
