<?xml version="1.0" encoding="utf-8"?>
<!-- Generator: Adobe Illustrator 19.2.1, SVG Export Plug-In . SVG Version: 6.00 Build 0)  -->
<svg version="1.1" id="Layer_1" xmlns="http://www.w3.org/2000/svg" xmlns:xlink="http://www.w3.org/1999/xlink" x="0px" y="0px"
	 viewBox="0 0 256 256" style="enable-background:new 0 0 256 256;" xml:space="preserve">
<style type="text/css">
	.st0{fill:#FFFFFF;}
</style>
<g>
	<polygon class="st0" points="111.8,155.5 158.2,124.9 111.8,94.3 	"/>
	<path class="st0" d="M200.3,0H55.7C24.9,0,0,25.1,0,56.1v143.8c0,31,24.9,56.1,55.7,56.1h144.6c30.8,0,55.7-25.1,55.7-56.1V56.1
		C256,25.1,231.1,0,200.3,0z M209.3,160.6c0,13.4-10.9,24.3-24.3,24.3H71c-13.4,0-24.3-10.9-24.3-24.3V95.4
		C46.7,82,57.6,71.1,71,71.1H185c13.4,0,24.3,10.9,24.3,24.3V160.6z"/>
</g>
</svg>
